<mxfile host="app.diagrams.net" modified="2023-10-31T08:59:14.055Z" agent="Mozilla/5.0 (Macintosh; Intel Mac OS X 10_15_7) AppleWebKit/537.36 (KHTML, like Gecko) Chrome/118.0.0.0 Safari/537.36" etag="isUgWa_K5zZqjjv4DmNq" version="21.5.0" type="github" pages="3">
  <diagram name="第 1 页" id="xiOc_uuZMijDFcuHJ46m">
    <mxGraphModel dx="1983" dy="734" grid="1" gridSize="10" guides="1" tooltips="1" connect="1" arrows="1" fold="1" page="1" pageScale="1" pageWidth="827" pageHeight="1169" math="0" shadow="0">
      <root>
        <mxCell id="0" />
        <mxCell id="1" parent="0" />
        <mxCell id="R2oW5jw1W84kDRn8sXQI-6" style="edgeStyle=orthogonalEdgeStyle;rounded=0;orthogonalLoop=1;jettySize=auto;html=1;entryX=0;entryY=0.5;entryDx=0;entryDy=0;" parent="1" source="R2oW5jw1W84kDRn8sXQI-1" target="R2oW5jw1W84kDRn8sXQI-2" edge="1">
          <mxGeometry relative="1" as="geometry" />
        </mxCell>
        <mxCell id="R2oW5jw1W84kDRn8sXQI-1" value="CreateEncoderFactory&lt;br&gt;" style="rounded=0;whiteSpace=wrap;html=1;" parent="1" vertex="1">
          <mxGeometry x="-10" y="260" width="130" height="60" as="geometry" />
        </mxCell>
        <mxCell id="R2oW5jw1W84kDRn8sXQI-10" style="edgeStyle=orthogonalEdgeStyle;rounded=0;orthogonalLoop=1;jettySize=auto;html=1;entryX=0.5;entryY=0;entryDx=0;entryDy=0;" parent="1" source="R2oW5jw1W84kDRn8sXQI-2" target="R2oW5jw1W84kDRn8sXQI-9" edge="1">
          <mxGeometry relative="1" as="geometry" />
        </mxCell>
        <mxCell id="R2oW5jw1W84kDRn8sXQI-11" value="编码后数据" style="edgeLabel;html=1;align=center;verticalAlign=middle;resizable=0;points=[];" parent="R2oW5jw1W84kDRn8sXQI-10" vertex="1" connectable="0">
          <mxGeometry x="-0.075" y="4" relative="1" as="geometry">
            <mxPoint as="offset" />
          </mxGeometry>
        </mxCell>
        <mxCell id="R2oW5jw1W84kDRn8sXQI-2" value="VideoEncoder" style="rounded=0;whiteSpace=wrap;html=1;" parent="1" vertex="1">
          <mxGeometry x="200" y="260" width="120" height="60" as="geometry" />
        </mxCell>
        <mxCell id="R2oW5jw1W84kDRn8sXQI-4" style="edgeStyle=orthogonalEdgeStyle;rounded=0;orthogonalLoop=1;jettySize=auto;html=1;exitX=0.5;exitY=1;exitDx=0;exitDy=0;entryX=0.5;entryY=0;entryDx=0;entryDy=0;" parent="1" source="R2oW5jw1W84kDRn8sXQI-3" target="R2oW5jw1W84kDRn8sXQI-2" edge="1">
          <mxGeometry relative="1" as="geometry" />
        </mxCell>
        <mxCell id="R2oW5jw1W84kDRn8sXQI-5" value="视频数据" style="edgeLabel;html=1;align=center;verticalAlign=middle;resizable=0;points=[];" parent="R2oW5jw1W84kDRn8sXQI-4" vertex="1" connectable="0">
          <mxGeometry x="-0.2" y="-1" relative="1" as="geometry">
            <mxPoint as="offset" />
          </mxGeometry>
        </mxCell>
        <mxCell id="R2oW5jw1W84kDRn8sXQI-3" value="摄像头采集" style="rounded=0;whiteSpace=wrap;html=1;" parent="1" vertex="1">
          <mxGeometry x="200" y="160" width="120" height="60" as="geometry" />
        </mxCell>
        <mxCell id="R2oW5jw1W84kDRn8sXQI-8" value="编码器类型" style="edgeStyle=orthogonalEdgeStyle;rounded=0;orthogonalLoop=1;jettySize=auto;html=1;entryX=0.5;entryY=0;entryDx=0;entryDy=0;" parent="1" source="R2oW5jw1W84kDRn8sXQI-7" target="R2oW5jw1W84kDRn8sXQI-1" edge="1">
          <mxGeometry relative="1" as="geometry" />
        </mxCell>
        <mxCell id="R2oW5jw1W84kDRn8sXQI-7" value="SDP" style="rounded=0;whiteSpace=wrap;html=1;" parent="1" vertex="1">
          <mxGeometry x="-10" y="160" width="130" height="60" as="geometry" />
        </mxCell>
        <mxCell id="R2oW5jw1W84kDRn8sXQI-13" style="edgeStyle=orthogonalEdgeStyle;rounded=0;orthogonalLoop=1;jettySize=auto;html=1;entryX=0.5;entryY=0;entryDx=0;entryDy=0;" parent="1" source="R2oW5jw1W84kDRn8sXQI-9" target="R2oW5jw1W84kDRn8sXQI-12" edge="1">
          <mxGeometry relative="1" as="geometry" />
        </mxCell>
        <mxCell id="R2oW5jw1W84kDRn8sXQI-9" value="网络传输" style="rounded=0;whiteSpace=wrap;html=1;" parent="1" vertex="1">
          <mxGeometry x="200" y="400" width="120" height="60" as="geometry" />
        </mxCell>
        <mxCell id="R2oW5jw1W84kDRn8sXQI-12" value="直播观看端" style="rounded=0;whiteSpace=wrap;html=1;" parent="1" vertex="1">
          <mxGeometry x="200" y="510" width="120" height="60" as="geometry" />
        </mxCell>
      </root>
    </mxGraphModel>
  </diagram>
  <diagram id="Ly0FiNHRTEXFfqyAK_jG" name="第 2 页">
    <mxGraphModel dx="1156" dy="734" grid="1" gridSize="10" guides="1" tooltips="1" connect="1" arrows="1" fold="1" page="1" pageScale="1" pageWidth="827" pageHeight="1169" math="0" shadow="0">
      <root>
        <mxCell id="0" />
        <mxCell id="1" parent="0" />
        <mxCell id="QYCauWpfGQhrReGKD5kp-1" value="DTLS&lt;br&gt;" style="rounded=0;whiteSpace=wrap;html=1;" vertex="1" parent="1">
          <mxGeometry x="120" y="200" width="120" height="60" as="geometry" />
        </mxCell>
        <mxCell id="QYCauWpfGQhrReGKD5kp-17" style="edgeStyle=orthogonalEdgeStyle;rounded=0;orthogonalLoop=1;jettySize=auto;html=1;entryX=0;entryY=0.5;entryDx=0;entryDy=0;startArrow=classic;startFill=1;" edge="1" parent="1" source="QYCauWpfGQhrReGKD5kp-2" target="QYCauWpfGQhrReGKD5kp-11">
          <mxGeometry relative="1" as="geometry" />
        </mxCell>
        <mxCell id="QYCauWpfGQhrReGKD5kp-18" value="Candidate" style="edgeLabel;html=1;align=center;verticalAlign=middle;resizable=0;points=[];" vertex="1" connectable="0" parent="QYCauWpfGQhrReGKD5kp-17">
          <mxGeometry x="-0.0769" y="2" relative="1" as="geometry">
            <mxPoint as="offset" />
          </mxGeometry>
        </mxCell>
        <mxCell id="QYCauWpfGQhrReGKD5kp-2" value="ICE" style="rounded=0;whiteSpace=wrap;html=1;verticalAlign=middle;" vertex="1" parent="1">
          <mxGeometry x="120" y="260" width="120" height="60" as="geometry" />
        </mxCell>
        <mxCell id="QYCauWpfGQhrReGKD5kp-15" style="edgeStyle=orthogonalEdgeStyle;rounded=0;orthogonalLoop=1;jettySize=auto;html=1;entryX=0;entryY=0.5;entryDx=0;entryDy=0;startArrow=classic;startFill=1;exitX=1;exitY=0.5;exitDx=0;exitDy=0;" edge="1" parent="1">
          <mxGeometry relative="1" as="geometry">
            <mxPoint x="240" y="349.5" as="sourcePoint" />
            <mxPoint x="500" y="349.5" as="targetPoint" />
            <Array as="points">
              <mxPoint x="330" y="349.5" />
              <mxPoint x="330" y="349.5" />
            </Array>
          </mxGeometry>
        </mxCell>
        <mxCell id="QYCauWpfGQhrReGKD5kp-16" value="数据" style="edgeLabel;html=1;align=center;verticalAlign=middle;resizable=0;points=[];" vertex="1" connectable="0" parent="QYCauWpfGQhrReGKD5kp-15">
          <mxGeometry x="-0.0692" y="5" relative="1" as="geometry">
            <mxPoint y="6" as="offset" />
          </mxGeometry>
        </mxCell>
        <mxCell id="QYCauWpfGQhrReGKD5kp-3" value="UDP" style="rounded=0;whiteSpace=wrap;html=1;" vertex="1" parent="1">
          <mxGeometry x="120" y="320" width="120" height="60" as="geometry" />
        </mxCell>
        <mxCell id="QYCauWpfGQhrReGKD5kp-8" value="SRTP" style="rounded=0;whiteSpace=wrap;html=1;" vertex="1" parent="1">
          <mxGeometry x="120" y="140" width="120" height="60" as="geometry" />
        </mxCell>
        <mxCell id="QYCauWpfGQhrReGKD5kp-9" value="Application" style="rounded=0;whiteSpace=wrap;html=1;" vertex="1" parent="1">
          <mxGeometry x="120" y="80" width="120" height="60" as="geometry" />
        </mxCell>
        <mxCell id="QYCauWpfGQhrReGKD5kp-10" value="DTLS" style="rounded=0;whiteSpace=wrap;html=1;" vertex="1" parent="1">
          <mxGeometry x="500" y="200" width="120" height="60" as="geometry" />
        </mxCell>
        <mxCell id="QYCauWpfGQhrReGKD5kp-11" value="ICE" style="rounded=0;whiteSpace=wrap;html=1;verticalAlign=middle;" vertex="1" parent="1">
          <mxGeometry x="500" y="260" width="120" height="60" as="geometry" />
        </mxCell>
        <mxCell id="QYCauWpfGQhrReGKD5kp-12" value="UDP" style="rounded=0;whiteSpace=wrap;html=1;" vertex="1" parent="1">
          <mxGeometry x="500" y="320" width="120" height="60" as="geometry" />
        </mxCell>
        <mxCell id="QYCauWpfGQhrReGKD5kp-13" value="SRTP" style="rounded=0;whiteSpace=wrap;html=1;" vertex="1" parent="1">
          <mxGeometry x="500" y="140" width="120" height="60" as="geometry" />
        </mxCell>
        <mxCell id="QYCauWpfGQhrReGKD5kp-14" value="Application" style="rounded=0;whiteSpace=wrap;html=1;" vertex="1" parent="1">
          <mxGeometry x="500" y="80" width="120" height="60" as="geometry" />
        </mxCell>
        <mxCell id="0DlXvE5fUHR1GdfxWm92-1" value="优化前" style="text;html=1;strokeColor=none;fillColor=none;align=center;verticalAlign=middle;whiteSpace=wrap;rounded=0;" vertex="1" parent="1">
          <mxGeometry x="330" y="40" width="60" height="30" as="geometry" />
        </mxCell>
      </root>
    </mxGraphModel>
  </diagram>
  <diagram id="dg6wTwz7pj5FjBY1KtvG" name="第 3 页">
    <mxGraphModel dx="1156" dy="734" grid="1" gridSize="10" guides="1" tooltips="1" connect="1" arrows="1" fold="1" page="1" pageScale="1" pageWidth="827" pageHeight="1169" math="0" shadow="0">
      <root>
        <mxCell id="0" />
        <mxCell id="1" parent="0" />
        <mxCell id="ZDIjTYNagiM6f9O2mspM-5" style="edgeStyle=orthogonalEdgeStyle;rounded=0;orthogonalLoop=1;jettySize=auto;html=1;entryX=0;entryY=0.5;entryDx=0;entryDy=0;startArrow=classic;startFill=1;exitX=1;exitY=0.5;exitDx=0;exitDy=0;" edge="1" parent="1">
          <mxGeometry relative="1" as="geometry">
            <mxPoint x="240" y="349.5" as="sourcePoint" />
            <mxPoint x="500" y="349.5" as="targetPoint" />
            <Array as="points">
              <mxPoint x="330" y="349.5" />
              <mxPoint x="330" y="349.5" />
            </Array>
          </mxGeometry>
        </mxCell>
        <mxCell id="ZDIjTYNagiM6f9O2mspM-6" value="数据" style="edgeLabel;html=1;align=center;verticalAlign=middle;resizable=0;points=[];" vertex="1" connectable="0" parent="ZDIjTYNagiM6f9O2mspM-5">
          <mxGeometry x="-0.0692" y="5" relative="1" as="geometry">
            <mxPoint y="6" as="offset" />
          </mxGeometry>
        </mxCell>
        <mxCell id="ZDIjTYNagiM6f9O2mspM-7" value="UDP" style="rounded=0;whiteSpace=wrap;html=1;" vertex="1" parent="1">
          <mxGeometry x="120" y="320" width="120" height="60" as="geometry" />
        </mxCell>
        <mxCell id="ZDIjTYNagiM6f9O2mspM-9" value="Application" style="rounded=0;whiteSpace=wrap;html=1;" vertex="1" parent="1">
          <mxGeometry x="120" y="260" width="120" height="60" as="geometry" />
        </mxCell>
        <mxCell id="ZDIjTYNagiM6f9O2mspM-12" value="UDP" style="rounded=0;whiteSpace=wrap;html=1;" vertex="1" parent="1">
          <mxGeometry x="500" y="320" width="120" height="60" as="geometry" />
        </mxCell>
        <mxCell id="ZDIjTYNagiM6f9O2mspM-14" value="Application" style="rounded=0;whiteSpace=wrap;html=1;" vertex="1" parent="1">
          <mxGeometry x="500" y="260" width="120" height="60" as="geometry" />
        </mxCell>
        <mxCell id="ZDIjTYNagiM6f9O2mspM-15" value="优化后" style="text;html=1;strokeColor=none;fillColor=none;align=center;verticalAlign=middle;whiteSpace=wrap;rounded=0;" vertex="1" parent="1">
          <mxGeometry x="340" y="200" width="60" height="30" as="geometry" />
        </mxCell>
      </root>
    </mxGraphModel>
  </diagram>
</mxfile>
